<svg width="102" height="102" viewBox="0 0 102 102" fill="none" xmlns="http://www.w3.org/2000/svg">
<g filter="url(#filter0_d_351_1064)">
<rect width="82" height="82" rx="30" fill="white"/>
</g>
<g opacity="0.8" filter="url(#filter1_i_351_1064)">
<path fill-rule="evenodd" clip-rule="evenodd" d="M39.0028 20.7678L37.6456 22.5356L35.4924 23.2245C34.3081 23.6033 33.3256 23.9243 33.309 23.9377C33.2925 23.9511 33.866 24.7521 34.5834 25.7178L35.8879 27.4735L35.9318 29.6377C35.956 30.828 36.0041 31.829 36.0387 31.8621C36.0734 31.8954 37.0635 31.6342 38.2391 31.2818L40.3765 30.6412L42.5101 31.2793C43.6836 31.6302 44.6708 31.8914 44.7041 31.8596C44.7372 31.8278 44.7841 30.828 44.8083 29.6377L44.8522 27.4735L46.1567 25.7178C46.8742 24.7521 47.4476 23.9511 47.4311 23.9377C47.4145 23.9243 46.432 23.6033 45.2477 23.2245L43.0945 22.5356L41.7373 20.7678C40.9908 19.7955 40.3755 19 40.3701 19C40.3646 19 39.7493 19.7955 39.0028 20.7678ZM23.7189 25.8304L22.3599 27.5979L20.18 28.295L18 28.9922L19.3172 30.7705L20.6345 32.549L20.6949 34.7539C20.7282 35.9666 20.7854 36.9588 20.8221 36.9588C20.8588 36.9588 21.8408 36.673 23.0044 36.3238L25.12 35.6886L27.2221 36.3238C28.3782 36.673 29.3673 36.9588 29.4201 36.9588C29.4871 36.9588 29.5168 36.3002 29.5186 34.7877L29.5211 32.6167L30.8361 30.8461C31.5594 29.8723 32.1515 29.0502 32.1519 29.0193C32.1524 28.9883 31.185 28.6536 30.0023 28.2754L27.8519 27.5878L26.4835 25.8233C25.7308 24.8528 25.1066 24.0598 25.0964 24.0608C25.0862 24.0619 24.4664 24.8582 23.7189 25.8304ZM54.5274 25.8142L53.1547 27.5841L51.0029 28.2766C49.8194 28.6576 48.8514 28.9932 48.8519 29.0224C48.8523 29.0516 49.4444 29.8723 50.1677 30.8461L51.4827 32.6167L51.4852 34.7877C51.4869 36.3257 51.5162 36.9588 51.5855 36.9588C51.6394 36.9588 52.633 36.6738 53.7935 36.3254L55.9036 35.692L58.024 36.3255C59.1902 36.674 60.1677 36.9591 60.1963 36.959C60.2247 36.9589 60.2747 35.9675 60.3071 34.756L60.3661 32.5533L61.683 30.7753L63 28.9972L60.8045 28.2775L58.609 27.5578L57.2545 25.8011L55.9 24.0443L54.5274 25.8142ZM38.79 34.3491C37.4512 34.5506 35.7274 35.0793 34.4616 35.6768L33.8262 35.9767L33.8024 37.627L33.7786 39.2775L29.1866 39.2993L24.5945 39.3211L24.5948 42.9669L24.5951 46.6127L32.4931 47.9884L40.3912 49.364L48.2684 47.9909L56.1456 46.6177V42.9694V39.3211L51.5536 39.2993L46.9615 39.2775L46.9377 37.6075L46.9138 35.9377L46.1587 35.6046C45.1991 35.1813 43.8155 34.727 42.8173 34.5077C41.9206 34.3105 39.6422 34.2208 38.79 34.3491ZM41.9204 36.9238C42.3245 36.9974 43.021 37.1699 43.468 37.3072L44.281 37.5569V38.4383V39.3196H40.3701H36.4591V38.4412V37.5628L37.1641 37.3376C38.8395 36.8023 40.4716 36.6604 41.9204 36.9238ZM24.5945 55.5922V62H40.3701H56.1456V55.5855V49.1709L55.9039 49.2186C55.771 49.2449 52.5972 49.7981 48.8511 50.4482C45.1049 51.0982 41.951 51.6496 41.8422 51.6735C41.6472 51.7163 41.6444 51.7362 41.6444 53.0644V54.4118H40.3701H39.0957V53.0684C39.0957 51.8618 39.0801 51.7207 38.9419 51.6818C38.7925 51.6397 24.7319 49.1843 24.6403 49.1843C24.6151 49.1843 24.5945 52.0678 24.5945 55.5922Z" fill="#2C2C2C"/>
</g>
<defs>
<filter id="filter0_d_351_1064" x="0" y="0" width="102" height="102" filterUnits="userSpaceOnUse" color-interpolation-filters="sRGB">
<feFlood flood-opacity="0" result="BackgroundImageFix"/>
<feColorMatrix in="SourceAlpha" type="matrix" values="0 0 0 0 0 0 0 0 0 0 0 0 0 0 0 0 0 0 127 0" result="hardAlpha"/>
<feOffset dx="10" dy="10"/>
<feGaussianBlur stdDeviation="5"/>
<feComposite in2="hardAlpha" operator="out"/>
<feColorMatrix type="matrix" values="0 0 0 0 0.73125 0 0 0 0 0.815625 0 0 0 0 0.9 0 0 0 0.26 0"/>
<feBlend mode="normal" in2="BackgroundImageFix" result="effect1_dropShadow_351_1064"/>
<feBlend mode="normal" in="SourceGraphic" in2="effect1_dropShadow_351_1064" result="shape"/>
</filter>
<filter id="filter1_i_351_1064" x="18" y="19" width="45" height="47" filterUnits="userSpaceOnUse" color-interpolation-filters="sRGB">
<feFlood flood-opacity="0" result="BackgroundImageFix"/>
<feBlend mode="normal" in="SourceGraphic" in2="BackgroundImageFix" result="shape"/>
<feColorMatrix in="SourceAlpha" type="matrix" values="0 0 0 0 0 0 0 0 0 0 0 0 0 0 0 0 0 0 127 0" result="hardAlpha"/>
<feOffset dy="4"/>
<feGaussianBlur stdDeviation="2"/>
<feComposite in2="hardAlpha" operator="arithmetic" k2="-1" k3="1"/>
<feColorMatrix type="matrix" values="0 0 0 0 0 0 0 0 0 0 0 0 0 0 0 0 0 0 1 0"/>
<feBlend mode="normal" in2="shape" result="effect1_innerShadow_351_1064"/>
</filter>
</defs>
</svg>
