<svg width="140" height="140" viewBox="0 0 140 140" fill="none" xmlns="http://www.w3.org/2000/svg">
<g filter="url(#filter0_d_353_1069)">
<rect width="120" height="120" rx="30" fill="white"/>
</g>
<g opacity="0.8" filter="url(#filter1_i_353_1069)">
<path fill-rule="evenodd" clip-rule="evenodd" d="M69.351 34.1985C68.7892 34.4556 68.4828 34.9727 68.3834 35.8321C68.2821 36.7085 68.0962 37.2269 67.6379 37.9111C66.7799 39.1917 65.351 40.0233 63.6982 40.2038C62.4145 40.3439 61.8209 40.5894 61.517 41.1055C61.0393 41.9169 61.3673 42.827 62.262 43.1721C62.5383 43.2787 63.176 43.4107 63.6791 43.4654C64.9131 43.5997 65.9851 44.0453 66.8246 44.7729C67.6642 45.5004 68.1784 46.4294 68.3334 47.4988C68.4922 48.5947 68.7777 49.1101 69.3712 49.3724C69.9735 49.6387 70.4543 49.6387 71.0566 49.3724C71.65 49.1101 71.9355 48.5947 72.0944 47.4988C72.4088 45.33 74.246 43.7379 76.7487 43.4654C78.0133 43.3277 78.608 43.0804 78.9107 42.5661C79.3884 41.7547 79.0604 40.8446 78.1658 40.4995C77.8895 40.3929 77.2432 40.2598 76.7296 40.2038C75.0767 40.0233 73.6478 39.1917 72.7899 37.9111C72.3316 37.2269 72.1456 36.7085 72.0443 35.8321C71.9427 34.9535 71.6398 34.4537 71.0513 34.1935C70.4641 33.9339 69.9261 33.9354 69.351 34.1985ZM47.891 37.403C47.3243 37.6621 47.0342 38.1976 46.8785 39.2715C46.5641 41.4404 44.727 43.0324 42.2243 43.3049C40.9596 43.4426 40.365 43.69 40.0622 44.2043C39.7549 44.7262 39.7549 45.1429 40.0622 45.6648C40.365 46.1791 40.9596 46.4265 42.2243 46.5642C44.727 46.8367 46.5641 48.4287 46.8785 50.5976C46.9417 51.0336 47.094 51.5862 47.217 51.8256C47.7904 52.9416 49.7277 52.9416 50.3011 51.8256C50.4241 51.5862 50.5764 51.0336 50.6396 50.5976C50.954 48.4287 52.7911 46.8367 55.2938 46.5642C56.5585 46.4265 57.1531 46.1791 57.4559 45.6648C57.7632 45.1429 57.7632 44.7262 57.4559 44.2043C57.1531 43.69 56.5585 43.4426 55.2938 43.3049C52.7911 43.0324 50.954 41.4404 50.6396 39.2715C50.4807 38.1756 50.1952 37.6603 49.6017 37.3979C49.0079 37.1354 48.4726 37.137 47.891 37.403ZM40.9459 55.9256C40.1729 56.2173 40.0584 56.4512 37.755 62.4386L35.5479 68.1754H46.6232H57.6986V61.9778V55.7803L49.504 55.7843C42.9606 55.7875 41.2363 55.816 40.9459 55.9256ZM61.2744 61.9778V68.1754H72.3497H83.425L81.2179 62.4386C79.6182 58.2804 78.9255 56.6139 78.7003 56.382C78.0996 55.7632 78.3618 55.7803 69.4429 55.7803H61.2744V61.9778ZM34.3366 71.3112C34.3366 71.3317 33.1557 74.3646 31.7122 78.0511C30.2689 81.7376 29.0564 84.9219 29.0177 85.1273C28.9092 85.7055 29.3102 86.3923 29.9117 86.6583C30.3904 86.8699 30.4894 86.8713 44.0461 86.8713H57.6986V79.0728V71.2742H46.0176C39.5931 71.2742 34.3366 71.2909 34.3366 71.3112ZM61.2744 79.0728V86.8713H74.9268C88.2666 86.8713 88.5897 86.8667 89.0386 86.6682C89.5247 86.4533 90 85.7887 90 85.3241C90 85.1908 89.1094 82.8 88.0209 80.0114C86.9323 77.2227 85.7208 74.116 85.3287 73.1076L84.6157 71.2742H72.945H61.2744V79.0728Z" fill="#2C2C2C"/>
</g>
<defs>
<filter id="filter0_d_353_1069" x="0" y="0" width="140" height="140" filterUnits="userSpaceOnUse" color-interpolation-filters="sRGB">
<feFlood flood-opacity="0" result="BackgroundImageFix"/>
<feColorMatrix in="SourceAlpha" type="matrix" values="0 0 0 0 0 0 0 0 0 0 0 0 0 0 0 0 0 0 127 0" result="hardAlpha"/>
<feOffset dx="10" dy="10"/>
<feGaussianBlur stdDeviation="5"/>
<feComposite in2="hardAlpha" operator="out"/>
<feColorMatrix type="matrix" values="0 0 0 0 0.73125 0 0 0 0 0.815625 0 0 0 0 0.9 0 0 0 0.26 0"/>
<feBlend mode="normal" in2="BackgroundImageFix" result="effect1_dropShadow_353_1069"/>
<feBlend mode="normal" in="SourceGraphic" in2="effect1_dropShadow_353_1069" result="shape"/>
</filter>
<filter id="filter1_i_353_1069" x="29" y="34" width="61" height="56.8713" filterUnits="userSpaceOnUse" color-interpolation-filters="sRGB">
<feFlood flood-opacity="0" result="BackgroundImageFix"/>
<feBlend mode="normal" in="SourceGraphic" in2="BackgroundImageFix" result="shape"/>
<feColorMatrix in="SourceAlpha" type="matrix" values="0 0 0 0 0 0 0 0 0 0 0 0 0 0 0 0 0 0 127 0" result="hardAlpha"/>
<feOffset dy="4"/>
<feGaussianBlur stdDeviation="2"/>
<feComposite in2="hardAlpha" operator="arithmetic" k2="-1" k3="1"/>
<feColorMatrix type="matrix" values="0 0 0 0 0 0 0 0 0 0 0 0 0 0 0 0 0 0 1 0"/>
<feBlend mode="normal" in2="shape" result="effect1_innerShadow_353_1069"/>
</filter>
</defs>
</svg>
