<svg width="102" height="102" viewBox="0 0 102 102" fill="none" xmlns="http://www.w3.org/2000/svg">
<g filter="url(#filter0_d_351_1062)">
<rect width="82" height="82" rx="30" fill="white"/>
</g>
<g opacity="0.8" filter="url(#filter1_i_351_1062)">
<path fill-rule="evenodd" clip-rule="evenodd" d="M38.726 19.0521C38.2875 19.1608 37.7367 19.4729 37.3959 19.806C36.8263 20.3629 36.6824 20.813 36.4214 22.8542C36.2919 23.8681 36.1499 24.7439 36.106 24.8007C36.062 24.8575 35.8806 24.9484 35.7028 25.0028C35.5251 25.0572 34.9715 25.2771 34.4726 25.4916L33.5656 25.8814L33.2397 25.6293C31.7127 24.4474 30.5598 23.6124 30.228 23.4479C29.687 23.1798 28.8319 23.1259 28.1519 23.3169C27.6481 23.4584 27.5599 23.5321 25.5898 25.4577C23.6198 27.3832 23.5443 27.4694 23.3995 27.9619C23.2036 28.6282 23.2592 29.4629 23.5348 29.991C23.6459 30.2041 24.2133 30.9787 24.7958 31.7125C25.3782 32.4463 25.892 33.0945 25.9377 33.153C25.9935 33.2248 25.891 33.5474 25.6231 34.1428C25.4044 34.6287 25.1801 35.1685 25.1244 35.3422C25.0688 35.516 24.9758 35.6931 24.9177 35.736C24.8596 35.7788 23.9602 35.919 22.9189 36.0476C20.8248 36.3061 20.3735 36.4439 19.8069 36.9976C19.6295 37.1711 19.3753 37.515 19.2422 37.762L19 38.211V40.9653V43.7197L19.2307 44.2005C19.3576 44.465 19.6118 44.8283 19.7955 45.0079C20.3781 45.5773 20.8286 45.716 22.9262 45.9722C23.9635 46.0988 24.8596 46.2376 24.9177 46.2805C24.9758 46.3235 25.0688 46.5008 25.1244 46.6745C25.1801 46.8482 25.4044 47.388 25.6231 47.8739C25.891 48.4693 25.9935 48.7919 25.9377 48.8637C25.892 48.9223 25.3782 49.5705 24.7958 50.3042C24.2133 51.038 23.6459 51.8127 23.5348 52.0257C23.2584 52.5557 23.2034 53.3894 23.401 54.0549C23.5461 54.5432 23.6333 54.6446 25.4592 56.4444C27.7339 58.6867 27.878 58.7808 29.0391 58.781C29.7045 58.7811 29.8949 58.7483 30.2253 58.5768C30.5372 58.4148 31.7433 57.5373 33.4654 56.2193C33.543 56.16 33.7825 56.2261 34.258 56.4381C34.6327 56.6052 35.2085 56.8331 35.5373 56.9445C35.9688 57.0907 36.1454 57.195 36.1719 57.3192C36.1922 57.4139 36.3105 58.2839 36.4347 59.2526C36.6864 61.2132 36.8329 61.6604 37.408 62.2225C37.5918 62.4021 37.9635 62.6505 38.2341 62.7745L38.726 63H41.5H44.274L44.7659 62.7745C45.0365 62.6505 45.4082 62.4021 45.592 62.2225C46.175 61.6526 46.3166 61.213 46.5775 59.1625C46.7065 58.1487 46.8553 57.2758 46.908 57.2227C46.9608 57.1697 47.3011 57.0186 47.6644 56.8871C48.0276 56.7556 48.5607 56.5331 48.8488 56.3927C49.472 56.089 49.2643 55.9977 51.0548 57.363C51.7813 57.917 52.5541 58.459 52.772 58.5677C53.3142 58.8379 54.1672 58.8916 54.8481 58.6984C55.3478 58.5567 55.4514 58.4714 57.2929 56.6867C59.587 54.4635 59.6833 54.3226 59.6835 53.1877C59.6837 52.2134 59.618 52.0854 58.2042 50.3042C57.6218 49.5705 57.108 48.9223 57.0623 48.8637C57.0065 48.7919 57.109 48.4693 57.3769 47.8739C57.5956 47.388 57.8199 46.8482 57.8756 46.6745C57.9312 46.5008 58.0242 46.3235 58.0823 46.2805C58.1404 46.2376 59.0365 46.0988 60.0738 45.9722C62.1684 45.7165 62.5975 45.5838 63.1977 45.0071C63.386 44.826 63.6436 44.4623 63.7701 44.1988L64 43.7197V41.0084V38.2971L63.7693 37.8163C63.6424 37.5518 63.3882 37.1885 63.2045 37.0088C62.6219 36.4394 62.1714 36.3007 60.0738 36.0445C59.0365 35.9179 58.1404 35.7792 58.0823 35.7362C58.0242 35.6932 57.9312 35.516 57.8756 35.3422C57.8199 35.1685 57.5956 34.6287 57.3769 34.1428C57.109 33.5474 57.0065 33.2248 57.0623 33.153C57.108 33.0945 57.6218 32.4463 58.2042 31.7125C58.7867 30.9787 59.3541 30.2041 59.4652 29.991C59.7408 29.4629 59.7964 28.6282 59.6005 27.9619C59.4557 27.4694 59.3802 27.3832 57.4102 25.4577C55.4401 23.5321 55.3519 23.4584 54.8481 23.3169C54.1664 23.1253 53.3124 23.1797 52.772 23.4491C52.5541 23.5577 51.7813 24.0998 51.0548 24.6537C49.2643 26.019 49.472 25.9277 48.8488 25.624C48.5607 25.4837 48.0276 25.2612 47.6644 25.1296C47.3011 24.9981 46.9608 24.8471 46.908 24.794C46.8553 24.7409 46.7065 23.8681 46.5775 22.8542C46.3166 20.8038 46.175 20.3641 45.592 19.7942C45.4082 19.6147 45.0365 19.3663 44.7659 19.2422L44.274 19.0167L41.6321 19.0017C40.1791 18.9935 38.8713 19.0161 38.726 19.0521ZM42.472 31.8842C43.5595 32.006 44.4868 32.2599 45.4168 32.6905C47.5131 33.661 49.0174 35.128 49.9983 37.158C51.6908 40.6605 50.9 44.857 48.0373 47.5643C45.2017 50.2459 41.0763 50.9376 37.5704 49.3192C36.5055 48.8277 35.7881 48.3448 34.9627 47.5643C32.1 44.857 31.3092 40.6605 33.0017 37.158C34.5483 33.9572 37.7357 31.9199 41.3679 31.8106C41.5616 31.8048 42.0585 31.8379 42.472 31.8842Z" fill="#2C2C2C"/>
</g>
<defs>
<filter id="filter0_d_351_1062" x="0" y="0" width="102" height="102" filterUnits="userSpaceOnUse" color-interpolation-filters="sRGB">
<feFlood flood-opacity="0" result="BackgroundImageFix"/>
<feColorMatrix in="SourceAlpha" type="matrix" values="0 0 0 0 0 0 0 0 0 0 0 0 0 0 0 0 0 0 127 0" result="hardAlpha"/>
<feOffset dx="10" dy="10"/>
<feGaussianBlur stdDeviation="5"/>
<feComposite in2="hardAlpha" operator="out"/>
<feColorMatrix type="matrix" values="0 0 0 0 0.73125 0 0 0 0 0.815625 0 0 0 0 0.9 0 0 0 0.26 0"/>
<feBlend mode="normal" in2="BackgroundImageFix" result="effect1_dropShadow_351_1062"/>
<feBlend mode="normal" in="SourceGraphic" in2="effect1_dropShadow_351_1062" result="shape"/>
</filter>
<filter id="filter1_i_351_1062" x="19" y="19" width="45" height="48" filterUnits="userSpaceOnUse" color-interpolation-filters="sRGB">
<feFlood flood-opacity="0" result="BackgroundImageFix"/>
<feBlend mode="normal" in="SourceGraphic" in2="BackgroundImageFix" result="shape"/>
<feColorMatrix in="SourceAlpha" type="matrix" values="0 0 0 0 0 0 0 0 0 0 0 0 0 0 0 0 0 0 127 0" result="hardAlpha"/>
<feOffset dy="4"/>
<feGaussianBlur stdDeviation="2"/>
<feComposite in2="hardAlpha" operator="arithmetic" k2="-1" k3="1"/>
<feColorMatrix type="matrix" values="0 0 0 0 0 0 0 0 0 0 0 0 0 0 0 0 0 0 1 0"/>
<feBlend mode="normal" in2="shape" result="effect1_innerShadow_351_1062"/>
</filter>
</defs>
</svg>
