<svg width="140" height="140" viewBox="0 0 140 140" fill="none" xmlns="http://www.w3.org/2000/svg">
<g filter="url(#filter0_d_353_1067)">
<rect width="120" height="120" rx="30" fill="white"/>
</g>
<g opacity="0.8" filter="url(#filter1_i_353_1067)">
<path fill-rule="evenodd" clip-rule="evenodd" d="M53.6941 35.1956C53.4397 35.3121 53.1908 35.5341 53.054 35.7665C52.8378 36.1339 52.8301 36.3278 52.8301 41.41V46.6731H67.915H83V41.41C83 36.3256 82.9924 36.134 82.7759 35.7661C82.6316 35.5209 82.3952 35.316 82.1123 35.1909C81.6788 34.9993 81.4889 34.9967 67.8917 35.0009C54.3906 35.005 54.1019 35.0091 53.6941 35.1956ZM40.3347 49.767C40.0803 49.8835 39.8314 50.1055 39.6946 50.3379C39.4785 50.7052 39.4707 50.8993 39.4707 55.9332V61.148H52.8301H66.1895V55.358V49.5681L53.4702 49.5723C41.0265 49.5765 40.742 49.5807 40.3347 49.767ZM69.5293 62.5955V75.6229H75.6011C81.4668 75.6229 81.6879 75.6164 82.1123 75.4287C82.3952 75.3036 82.6316 75.0986 82.7759 74.8534C82.9971 74.4776 83 74.3099 83 62.0204V49.5681H76.2646H69.5293V62.5955ZM26.864 64.242C26.6096 64.3584 26.3607 64.5804 26.2239 64.8129C26.0088 65.1784 26 65.3753 26 69.833C26 74.2925 26.0087 74.4874 26.2241 74.8534C26.3684 75.0986 26.6048 75.3036 26.8877 75.4287C27.3193 75.6195 27.5221 75.6229 38.4086 75.6229H49.4902V69.833V64.043L38.3853 64.0472C27.5488 64.0514 27.2703 64.0561 26.864 64.242ZM52.8301 73.6485C52.8301 83.085 52.834 83.2608 53.0542 83.6349C53.1985 83.8801 53.4349 84.0851 53.7178 84.2101C54.1401 84.3968 54.365 84.4044 59.5098 84.4044C64.6546 84.4044 64.8795 84.3968 65.3017 84.2101C65.5846 84.0851 65.8211 83.8801 65.9654 83.6349C66.1856 83.2608 66.1895 83.085 66.1895 73.6485V64.043H59.5098H52.8301V73.6485Z" fill="#2C2C2C"/>
</g>
<defs>
<filter id="filter0_d_353_1067" x="0" y="0" width="140" height="140" filterUnits="userSpaceOnUse" color-interpolation-filters="sRGB">
<feFlood flood-opacity="0" result="BackgroundImageFix"/>
<feColorMatrix in="SourceAlpha" type="matrix" values="0 0 0 0 0 0 0 0 0 0 0 0 0 0 0 0 0 0 127 0" result="hardAlpha"/>
<feOffset dx="10" dy="10"/>
<feGaussianBlur stdDeviation="5"/>
<feComposite in2="hardAlpha" operator="out"/>
<feColorMatrix type="matrix" values="0 0 0 0 0.73125 0 0 0 0 0.815625 0 0 0 0 0.9 0 0 0 0.26 0"/>
<feBlend mode="normal" in2="BackgroundImageFix" result="effect1_dropShadow_353_1067"/>
<feBlend mode="normal" in="SourceGraphic" in2="effect1_dropShadow_353_1067" result="shape"/>
</filter>
<filter id="filter1_i_353_1067" x="26" y="35" width="57" height="53.4044" filterUnits="userSpaceOnUse" color-interpolation-filters="sRGB">
<feFlood flood-opacity="0" result="BackgroundImageFix"/>
<feBlend mode="normal" in="SourceGraphic" in2="BackgroundImageFix" result="shape"/>
<feColorMatrix in="SourceAlpha" type="matrix" values="0 0 0 0 0 0 0 0 0 0 0 0 0 0 0 0 0 0 127 0" result="hardAlpha"/>
<feOffset dy="4"/>
<feGaussianBlur stdDeviation="2"/>
<feComposite in2="hardAlpha" operator="arithmetic" k2="-1" k3="1"/>
<feColorMatrix type="matrix" values="0 0 0 0 0 0 0 0 0 0 0 0 0 0 0 0 0 0 1 0"/>
<feBlend mode="normal" in2="shape" result="effect1_innerShadow_353_1067"/>
</filter>
</defs>
</svg>
